<?xml version="1.0" encoding="utf-8"?>
<!-- Generator: Adobe Illustrator 21.0.0, SVG Export Plug-In . SVG Version: 6.00 Build 0)  -->
<svg version="1.1" id="Слой_1" xmlns="http://www.w3.org/2000/svg" xmlns:xlink="http://www.w3.org/1999/xlink" x="0px" y="0px"
	 viewBox="0 0 32 40" style="enable-background:new 0 0 32 40;" xml:space="preserve">
<path id="landing-pixel-ram" style="fill:#AAAAAA;" d="M14.5,33.9h-3c-0.2,0-0.4-0.2-0.4-0.4V6.6c0-0.2,0.2-0.4,0.4-0.4c0,0,0,0,0,0
	h3c0.3,0,0.6-0.3,0.5-0.6C15,5.3,14.8,5,14.5,5c0,0,0,0,0,0h-3c-0.8,0-1.5,0.7-1.5,1.6v26.9c0,0.8,0.7,1.5,1.5,1.6h3
	c0.3,0,0.6-0.3,0.5-0.6C15,34.1,14.8,33.9,14.5,33.9C14.5,33.9,14.5,33.9,14.5,33.9z M20.6,5h-3.3c-0.3,0-0.6,0.3-0.5,0.6
	c0,0,0,0,0,0c0,0.3,0.2,0.6,0.5,0.6h3.3c0.2,0,0.4,0.2,0.4,0.4c0,0,0,0,0,0v26.9c0,0.2-0.2,0.4-0.4,0.4h-3.3c-0.3,0-0.6,0.3-0.5,0.6
	c0,0,0,0,0,0c0,0.3,0.2,0.6,0.5,0.6h3.3c0.8,0,1.5-0.7,1.5-1.6V6.6C22.1,5.7,21.4,5,20.6,5L20.6,5z M30.4,15.4
	c0.9,0,1.6-0.8,1.6-1.7v-1.5c0-0.9-0.7-1.7-1.6-1.7h-3.5V8.4h3.5c0.9,0,1.6-0.8,1.6-1.7V5.3c0-0.9-0.7-1.7-1.6-1.7h-3.5V2.2
	C26.9,1,26,0,24.8,0H7.3C6.1,0,5.1,1,5.1,2.2v1.3H1.6C0.7,3.6,0,4.3,0,5.3v1.5c0,0.9,0.7,1.7,1.6,1.7h3.5v2.1H1.6
	c-0.9,0-1.6,0.8-1.6,1.7v1.5c0,0.9,0.7,1.7,1.6,1.7h3.5v2.1H1.6c-0.9,0-1.6,0.8-1.6,1.7v1.5c0,0.9,0.7,1.7,1.6,1.7h3.5v2.1H1.6
	c-0.9,0-1.6,0.8-1.6,1.7v1.5c0,0.9,0.7,1.7,1.6,1.7h3.5v2.1H1.6c-0.9,0-1.6,0.8-1.6,1.7v1.5c0,0.9,0.7,1.7,1.6,1.7h3.5v1.4
	C5.1,39,6.1,40,7.3,40h17.5c1.2,0,2.1-1,2.1-2.2v-1.4h3.5c0.9,0,1.6-0.8,1.6-1.7v-1.5c0-0.9-0.7-1.7-1.6-1.7h-3.5v-2.1h3.5
	c0.9,0,1.6-0.8,1.6-1.7v-1.5c0-0.9-0.7-1.7-1.6-1.7h-3.5v-2.1h3.5c0.9,0,1.6-0.8,1.6-1.7v-1.5c0-0.9-0.7-1.7-1.6-1.7h-3.5v-2.1H30.4
	z M26.9,4.7h3.5c0.3,0,0.5,0.3,0.5,0.6v1.5c0,0.3-0.2,0.5-0.5,0.6h-3.5V4.7z M26.9,11.7h3.5c0.3,0,0.5,0.3,0.5,0.6v1.5
	c0,0.3-0.2,0.6-0.5,0.6h-3.5V11.7z M5.1,35.3H1.6c-0.3,0-0.5-0.2-0.5-0.5c0,0,0,0,0,0v-1.5c0-0.3,0.2-0.5,0.5-0.6h3.5V35.3L5.1,35.3
	z M5.1,28.3H1.6c-0.3,0-0.5-0.3-0.5-0.6v-1.5c0-0.3,0.2-0.5,0.5-0.6h3.5V28.3L5.1,28.3z M5.1,21.3H1.6c-0.3,0-0.5-0.3-0.5-0.6v-1.5
	c0-0.3,0.2-0.5,0.5-0.6h3.5V21.3L5.1,21.3z M5.1,14.3H1.6c-0.3,0-0.5-0.3-0.5-0.6v-1.5c0-0.3,0.2-0.6,0.5-0.6h3.5V14.3L5.1,14.3z
	 M5.1,7.3H1.6c-0.3,0-0.5-0.3-0.5-0.6V5.3c0-0.3,0.2-0.6,0.5-0.6h3.5V7.3L5.1,7.3z M25.8,37.8c0,0.6-0.5,1.1-1,1.1H7.3
	c-0.6,0-1-0.5-1-1.1V2.2c0-0.6,0.4-1.1,1-1.1h17.5c0.6,0,1,0.5,1,1.1V37.8z M30.4,32.7c0.3,0,0.5,0.3,0.5,0.6v1.5
	c0,0.3-0.2,0.5-0.5,0.6c0,0,0,0,0,0h-3.5v-2.6H30.4z M30.4,25.7c0.3,0,0.5,0.3,0.5,0.6v1.5c0,0.3-0.2,0.6-0.5,0.6h-3.5v-2.6H30.4z
	 M30.4,18.7c0.3,0,0.5,0.3,0.5,0.6v1.5c0,0.3-0.2,0.6-0.5,0.6h-3.5v-2.6H30.4z M18.4,23.9c0.1,0,0.2-0.2,0.2-0.3v-0.4
	c0-0.2-0.1-0.3-0.3-0.3c0,0-0.1,0-0.1,0c-0.6,0.2-1.3,0.4-2,0.7c0-0.1-0.1-0.2-0.2-0.3c-0.1-0.1-0.1-0.1-0.2-0.2
	c-0.1-0.1-0.2-0.1-0.3-0.1c-0.1,0-0.2,0-0.3-0.1c-0.1,0-0.2,0-0.3,0c-0.2,0-0.4,0-0.6,0.1c-0.2,0.1-0.3,0.2-0.4,0.3
	c-0.1,0.2-0.2,0.3-0.2,0.5c-0.1,0.2-0.1,0.5-0.1,0.7v0.9c0,0.2,0.1,0.3,0.3,0.3h4.4c0.2,0,0.3-0.1,0.3-0.3v-0.5
	c0-0.2-0.1-0.3-0.3-0.3h-2v-0.2L18.4,23.9z M15.7,24.6h-1.3v-0.4c0-0.1,0-0.1,0.1-0.2c0.1,0,0.1-0.1,0.2-0.1c0.1,0,0.1,0,0.2,0
	c0.1,0,0.1,0,0.2,0c0.1,0,0.1,0,0.2,0c0.1,0,0.1,0,0.2,0.1c0.1,0,0.1,0.1,0.2,0.1c0.1,0.1,0.1,0.1,0.1,0.2L15.7,24.6L15.7,24.6z
	 M18.4,20.2c0.1,0,0.2-0.1,0.2-0.2v-0.5c0-0.1-0.1-0.2-0.2-0.2c0,0,0,0,0,0l-4.6,1c-0.1,0-0.2,0.1-0.2,0.2V21c0,0.1,0.1,0.2,0.2,0.2
	l4.6,1c0.1,0,0.3-0.1,0.3-0.2c0,0,0,0,0-0.1v-0.5c0-0.1-0.1-0.2-0.2-0.2l-0.9-0.2v-0.7L18.4,20.2z M16.9,21l-1.9-0.3l1.9-0.3V21z
	 M18.4,17.6l-3.4,0l3.4-0.6c0.1,0,0.1-0.1,0.1-0.2v-0.5c0-0.1-0.1-0.2-0.1-0.2c-0.4-0.1-0.9-0.1-1.6-0.3c-0.8-0.2-1.4-0.3-1.8-0.3
	l3.4,0c0.1,0,0.2-0.1,0.2-0.2c0,0,0,0,0,0v-0.4c0-0.1-0.1-0.2-0.2-0.2h-4.7c-0.1,0-0.2,0.1-0.2,0.2v0.9c0,0.1,0.1,0.2,0.1,0.2
	l3.2,0.6l-3.2,0.5c-0.1,0-0.2,0.1-0.1,0.2v0.9c0,0.1,0.1,0.2,0.2,0.2h4.7c0.1,0,0.2-0.1,0.2-0.2v-0.4C18.6,17.7,18.5,17.6,18.4,17.6
	L18.4,17.6z"/>
</svg>
