<?xml version="1.0" encoding="UTF-8"?> <svg xmlns="http://www.w3.org/2000/svg" width="50" height="50" viewBox="0 0 50 50" fill="none"><rect width="50" height="50" rx="10" fill="#B162E1"></rect><path d="M31.1515 24.869C31.1037 24.264 30.5712 23.7643 29.9644 23.755L25.9485 23.6934C25.7152 23.6899 25.4788 23.4845 25.4426 23.254L24.5577 17.6288C24.5257 17.425 24.3357 16.5942 23.2984 16.5942L18.3045 16.8117C17.6465 16.8402 17.1117 17.1601 17.1117 18.0579C17.1117 18.0579 17.0907 30.5609 17.0651 31.014L16.8904 34.1074C16.867 34.5206 16.7061 35.1893 16.5389 35.5677L14.5175 40.1429C14.3841 40.4448 14.3863 40.7785 14.5236 41.0585C14.6609 41.3385 14.9232 41.5447 15.2437 41.6243L15.9166 41.7913C16.0168 41.8162 16.1216 41.8287 16.2281 41.8287C16.7713 41.8287 17.291 41.5135 17.5212 41.0442L19.4427 37.1276C19.6549 36.695 19.919 35.9619 20.0316 35.4933L21.1158 30.9768L23.7396 34.9894C23.956 35.3202 24.1847 35.9551 24.2291 36.3479L24.7363 40.8403C24.8085 41.4797 25.3909 42 26.0346 42L26.802 41.9973C27.1313 41.9962 27.4306 41.8648 27.645 41.6272C27.8593 41.3897 27.9595 41.0785 27.927 40.7509L27.3972 35.4099C27.3483 34.9174 27.1714 34.1694 26.9944 33.7071L24.6434 27.5662L24.6288 26.2716L30.0931 26.0694C30.3981 26.0581 30.6768 25.9275 30.8779 25.7016C31.0789 25.4758 31.1764 25.1839 31.1524 24.8792L31.1515 24.869Z" fill="white"></path><path d="M19.9009 15.4071C20.3213 15.4071 20.737 15.3354 21.1364 15.1939C22.0688 14.8639 22.8168 14.1906 23.2427 13.2979C23.5438 12.6667 23.6574 11.9793 23.582 11.3012L24.8229 11.1612C25.2554 11.1124 25.6943 10.7675 25.8439 10.3589L26.2595 9.22376C26.3483 8.98126 26.3249 8.73589 26.1953 8.55042C26.069 8.36965 25.8562 8.26595 25.6114 8.26595C25.583 8.26595 25.5537 8.26731 25.5236 8.27018L21.9354 8.61146C21.3439 8.22185 20.6405 8 19.9005 8C19.4803 8 19.0647 8.07163 18.6651 8.213C17.7328 8.54316 16.9848 9.21657 16.5589 10.1093C16.1329 11.002 16.0802 12.007 16.4104 12.9391C16.9331 14.4153 18.3358 15.4071 19.9009 15.4071Z" fill="white"></path><path d="M35.5783 21.2025L35.2213 16.0709C35.1789 15.4615 34.6474 14.9657 34.0344 14.9657L27.1748 14.9777C26.8677 14.9782 26.5855 15.1001 26.38 15.3208C26.1745 15.5414 26.073 15.8317 26.0944 16.1381L26.4514 21.2696C26.4939 21.8791 27.0253 22.3748 27.6362 22.3748L34.4979 22.3628C34.805 22.3623 35.0873 22.2405 35.2928 22.0198C35.4982 21.7991 35.5996 21.5088 35.5783 21.2025Z" fill="white"></path></svg> 